<svg xmlns="http://www.w3.org/2000/svg" width="18" height="20" viewBox="0 0 18 20" fill="none">
<path fill-rule="evenodd" clip-rule="evenodd" d="M12.2215 2.72455L10.2314 1.79659C9.5196 1.46465 8.7205 2.04529 8.81629 2.82486L8.92498 3.70938L7.35526 7.07567C5.63073 7.12278 4.1031 7.98006 3.29245 8.53218C2.99339 8.73587 3.04756 9.16521 3.37549 9.31813L6.04448 10.5627L5.45958 17.2255L10.3372 12.5644L12.9617 13.7883C13.3006 13.9463 13.6728 13.6916 13.6178 13.3217C13.4694 12.3242 13.071 10.5989 12.0163 9.24913L13.586 5.88285L14.3334 5.39755C14.9922 4.96983 14.9233 3.98446 14.2115 3.65252L12.2215 2.72455Z" fill="white"/>
</svg>