<svg xmlns="http://www.w3.org/2000/svg" width="24" height="22" viewBox="0 0 24 22" fill="none">
<path fill-rule="evenodd" clip-rule="evenodd" d="M15.2538 3.57943L13.2638 2.65146C12.5519 2.31952 11.7528 2.90016 11.8486 3.67973L11.9573 4.56426L10.4374 7.82367L6.50428 3.89052L5.44362 4.95118L18.1715 17.6791L19.2322 16.6184L16.6241 14.0103C16.4572 12.9954 16.0468 11.3815 15.0486 10.104L16.6183 6.73772L17.3658 6.25242C18.0245 5.82471 17.9557 4.83933 17.2438 4.50739L15.2538 3.57943ZM6.32479 9.38706C6.56597 9.22279 6.87063 9.03151 7.22505 8.84259L12.5678 14.1854L8.49192 18.0804L9.07682 11.4176L6.40783 10.173C6.0799 10.0201 6.02573 9.59074 6.32479 9.38706Z" fill="white"/>
</svg>